<svg id="SvgjsSvg1000" xmlns="http://www.w3.org/2000/svg" version="1.1" xmlns:xlink="http://www.w3.org/1999/xlink" xmlns:svgjs="http://svgjs.com/svgjs" width="125" height="29" viewBox="0 0 125 29"><title>logo</title><desc>Created with Avocode.</desc><defs id="SvgjsDefs1001"></defs><path id="SvgjsPath1007" d="M64.03 51.04L67.97 51.26V51.69C67.97 52.8 68.21 53.66 68.67 54.25C69.14 54.85 69.8 55.15 70.65 55.15C71.45 55.15 72.13000000000001 54.82 72.67 54.16C73.21000000000001 53.5 73.48 52.68 73.48 51.69C73.48 50.98 73.28 50.18 72.89 49.3C72.49 48.41 71.72 47.129999999999995 70.58 45.47C69.31 43.629999999999995 68.44 42.12 67.95 40.94C67.47 39.76 67.23 38.65 67.23 37.58C67.23 35.67 67.84 34.089999999999996 69.07000000000001 32.849999999999994C70.30000000000001 31.619999999999994 71.86000000000001 30.999999999999993 73.77000000000001 30.999999999999993C75.64000000000001 30.999999999999993 77.10000000000001 31.609999999999992 78.16000000000001 32.839999999999996C79.22000000000001 34.059999999999995 79.75000000000001 35.76 79.75000000000001 37.92999999999999V38.39999999999999L75.93000000000002 38.17999999999999C75.93000000000002 37.07999999999999 75.73000000000002 36.239999999999995 75.31000000000002 35.64999999999999C74.90000000000002 35.05999999999999 74.31000000000002 34.75999999999999 73.55000000000001 34.75999999999999C72.82000000000001 34.75999999999999 72.23000000000002 35.01999999999999 71.77000000000001 35.51999999999999C71.31000000000002 36.02999999999999 71.08000000000001 36.679999999999986 71.08000000000001 37.47999999999999C71.08000000000001 38.32999999999999 71.62000000000002 39.55999999999999 72.70000000000002 41.16999999999999C73.10000000000002 41.73999999999999 73.39000000000001 42.18999999999999 73.58000000000001 42.499999999999986C73.70000000000002 42.66999999999999 73.86000000000001 42.929999999999986 74.07000000000001 43.259999999999984C76.35000000000001 46.79999999999998 77.49000000000001 49.499999999999986 77.49000000000001 51.36999999999998C77.49000000000001 53.62999999999998 76.83000000000001 55.469999999999985 75.53000000000002 56.87999999999998C74.22000000000001 58.28999999999998 72.51000000000002 58.99999999999998 70.41000000000001 58.99999999999998C68.43 58.99999999999998 66.86000000000001 58.35999999999998 65.72000000000001 57.08999999999998C64.57000000000001 55.81999999999998 64.00000000000001 54.06999999999998 64.00000000000001 51.859999999999985C64.00000000000001 51.639999999999986 64.00000000000001 51.47999999999998 64.01000000000002 51.36999999999998C64.01000000000002 51.259999999999984 64.02000000000002 51.149999999999984 64.03000000000002 51.039999999999985 " fill="#292e2c" fill-opacity="1" transform="matrix(1,0,0,1,-64,-31)"></path><path id="SvgjsPath1008" d="M83.79 32H87.83000000000001L84.32000000000001 50.19C84.19000000000001 50.89 84.09 51.489999999999995 84.02000000000001 51.989999999999995C83.96000000000001 52.48 83.93 52.879999999999995 83.93 53.19C83.93 53.98 84.09 54.559999999999995 84.43 54.93C84.76 55.31 85.28 55.5 85.99000000000001 55.5C86.76 55.5 87.36000000000001 55.2 87.78000000000002 54.6C88.21000000000002 53.99 88.59000000000002 52.84 88.92000000000002 51.14L92.53000000000002 32H96.63000000000001L92.91000000000001 51.28C92.33000000000001 54.24 91.53000000000002 56.28 90.52000000000001 57.42C89.51 58.56 88.03000000000002 59.120000000000005 86.09 59.120000000000005C84.06 59.120000000000005 82.54 58.620000000000005 81.53 57.620000000000005C80.51 56.61000000000001 80 55.1 80 53.09C80 52.580000000000005 80.04 52.03 80.11 51.43000000000001C80.17999999999999 50.830000000000005 80.28 50.17000000000001 80.41 49.46000000000001Z " fill="#292e2c" fill-opacity="1" transform="matrix(1,0,0,1,-64,-31)"></path><path id="SvgjsPath1009" d="M96 59.12L101.35 31.999999999999996H105.28999999999999L107.86999999999999 47.23C107.97999999999999 47.93 108.07 48.66 108.11999999999999 49.419999999999995C108.17999999999999 50.17999999999999 108.21 50.98 108.21 51.839999999999996H108.38C108.38 50.63999999999999 108.39999999999999 49.599999999999994 108.46 48.699999999999996C108.52 47.79 108.6 47.059999999999995 108.69999999999999 46.489999999999995L111.28999999999999 31.999999999999993H115.24999999999999L109.91999999999999 59.11999999999999H106.57999999999998L103.83999999999999 43.17999999999999C103.71 42.449999999999996 103.61999999999999 41.63999999999999 103.55999999999999 40.769999999999996C103.49999999999999 39.88999999999999 103.46999999999998 38.94 103.46999999999998 37.919999999999995V37.209999999999994H103.30999999999999C103.30999999999999 38.419999999999995 103.27999999999999 39.53999999999999 103.21999999999998 40.56999999999999C103.15999999999998 41.589999999999996 103.06999999999998 42.43999999999999 102.93999999999998 43.10999999999999L99.95999999999998 59.11999999999999Z " fill="#292e2c" fill-opacity="1" transform="matrix(1,0,0,1,-64,-31)"></path><path id="SvgjsPath1010" d="M122.74 36.05C122.17 36.739999999999995 121.64 37.809999999999995 121.14999999999999 39.25C120.49 41.16 119.96999999999998 43.2 119.58999999999999 45.37C119.21999999999998 47.54 119.03999999999999 49.559999999999995 119.03999999999999 51.449999999999996C119.03999999999999 52.739999999999995 119.19999999999999 53.66 119.52 54.22C119.83999999999999 54.769999999999996 120.38 55.05 121.11999999999999 55.05C121.82999999999998 55.05 122.47999999999999 54.699999999999996 123.05999999999999 54C123.64999999999999 53.3 124.18999999999998 52.23 124.67999999999999 50.79C125.3 48.94 125.8 46.95 126.16 44.81C126.52 42.67 126.7 40.690000000000005 126.7 38.89C126.7 37.55 126.53 36.57 126.19 35.95C125.85 35.32 125.33 35.010000000000005 124.61 35.010000000000005C123.94 35.010000000000005 123.31 35.35000000000001 122.74 36.050000000000004ZM115.82 43C116.36999999999999 40.43 117.11999999999999 38.18 118.08 36.25C118.96 34.53 119.97 33.23 121.13 32.34C122.28 31.450000000000003 123.53999999999999 31.000000000000004 124.91 31.000000000000004C126.82 31.000000000000004 128.28 31.730000000000004 129.27 33.18000000000001C130.26000000000002 34.63000000000001 130.75 36.730000000000004 130.75 39.50000000000001C130.75 40.540000000000006 130.69 41.620000000000005 130.58 42.75000000000001C130.46 43.88000000000001 130.28 45.080000000000005 130.04000000000002 46.34C129.69000000000003 48.190000000000005 129.27 49.84 128.76000000000002 51.300000000000004C128.25000000000003 52.760000000000005 127.66000000000003 54.050000000000004 126.99000000000002 55.150000000000006C126.25000000000003 56.370000000000005 125.34000000000002 57.32000000000001 124.27000000000002 57.99000000000001C123.20000000000003 58.66000000000001 122.05000000000003 59.00000000000001 120.84000000000002 59.00000000000001C118.93000000000002 59.00000000000001 117.47000000000001 58.31000000000001 116.48000000000002 56.940000000000005C115.49000000000002 55.57000000000001 115.00000000000001 53.550000000000004 115.00000000000001 50.89000000000001C115.00000000000001 48.21000000000001 115.27000000000001 45.580000000000005 115.82000000000001 43.00000000000001Z " fill="#292e2c" fill-opacity="1" transform="matrix(1,0,0,1,-64,-31)"></path><path id="SvgjsPath1011" d="M134 59.12L134.32 31.999999999999996H138.37L137.78 48.86C137.76 49.31 137.71 49.98 137.63 50.86C137.54999999999998 51.74 137.45 52.75 137.32999999999998 53.88C137.57 52.71 137.79 51.75 137.98 50.980000000000004C138.17 50.21 138.35999999999999 49.57000000000001 138.53 49.06L144.52 32H148.88000000000002L138.40000000000003 59.120000000000005Z " fill="#292e2c" fill-opacity="1" transform="matrix(1,0,0,1,-64,-31)"></path><path id="SvgjsPath1012" d="M154.44 49.06L154.88 36.900000000000006L151.2 49.06ZM153.67 32H158V59.120000000000005H154.11L154.31 53.17H149.93L147.99 59.120000000000005H144Z " fill="#292e2c" fill-opacity="1" transform="matrix(1,0,0,1,-64,-31)"></path><path id="SvgjsPath1013" d="M166.42 32H172.39999999999998C172.14 32.51 171.98999999999998 33.1 171.98999999999998 33.79C171.98999999999998 38.35 178.61999999999998 38.49 180.38 38.66C184.64 39.08 188.75 41.699999999999996 188.75 46.26C188.75 55.089999999999996 178.56 58.25 173.79 58.25C172.89 58.25 170.48999999999998 58.13 168.7 57.53C174.69 57.83 181.26999999999998 53.870000000000005 181.26999999999998 47.79C181.26999999999998 44.14 178.55999999999997 40.71 173.48999999999998 39.879999999999995C169.01999999999998 39.13999999999999 165.99999999999997 37.74999999999999 165.99999999999997 34.39999999999999C165.99999999999997 33.47999999999999 166.14999999999998 32.67999999999999 166.41999999999996 31.999999999999993 " fill="#292e2c" fill-opacity="1" transform="matrix(1,0,0,1,-64,-31)"></path><path id="SvgjsPath1014" d="M164 40C168.18 43.15 176.25 42.24 176.25 47.51C176.25 51.94 170.55 53.129999999999995 168.45 53.129999999999995C166.83999999999997 53.129999999999995 165.35 52.849999999999994 164 52.349999999999994V52.349999999999994V46.89999999999999Z " fill="#292e2c" fill-opacity="1" transform="matrix(1,0,0,1,-64,-31)"></path><path id="SvgjsPath1015" d="M176.47 32H179.68C180.04000000000002 32.55 180.25 33.25 180.25 34.01C180.25 35.8 179.07 37.25 177.62 37.25C176.18 37.25 175 35.8 175 34.01C175 33.25 175.21 32.55 175.56 32H176.47 " fill="#292e2c" fill-opacity="1" transform="matrix(1,0,0,1,-64,-31)"></path></svg>